<mxfile host="app.diagrams.net" modified="2022-07-08T02:33:38.967Z" agent="5.0 (X11; Linux x86_64) AppleWebKit/537.36 (KHTML, like Gecko) Chrome/103.0.0.0 Safari/537.36" etag="8fiquwfWfSRhysOgPOEM" version="20.0.4" type="github">
  <diagram id="C5RBs43oDa-KdzZeNtuy" name="Page-1">
    <mxGraphModel dx="1240" dy="617" grid="1" gridSize="10" guides="1" tooltips="1" connect="1" arrows="1" fold="1" page="1" pageScale="1" pageWidth="1169" pageHeight="827" math="0" shadow="0">
      <root>
        <mxCell id="WIyWlLk6GJQsqaUBKTNV-0" />
        <mxCell id="WIyWlLk6GJQsqaUBKTNV-1" parent="WIyWlLk6GJQsqaUBKTNV-0" />
        <mxCell id="RDTARKWvVBVLJ8gn_Zw1-19" value="" style="edgeStyle=orthogonalEdgeStyle;rounded=0;orthogonalLoop=1;jettySize=auto;html=1;endArrow=none;endFill=0;" parent="WIyWlLk6GJQsqaUBKTNV-1" source="RDTARKWvVBVLJ8gn_Zw1-11" target="RDTARKWvVBVLJ8gn_Zw1-18" edge="1">
          <mxGeometry relative="1" as="geometry">
            <Array as="points">
              <mxPoint x="200" y="277" />
              <mxPoint x="200" y="277" />
            </Array>
          </mxGeometry>
        </mxCell>
        <mxCell id="RDTARKWvVBVLJ8gn_Zw1-11" value="&lt;p style=&quot;margin:0px;margin-top:4px;text-align:center;&quot;&gt;&lt;i&gt;&amp;lt;&amp;lt;&lt;/i&gt;boundary&lt;i&gt;&amp;gt;&amp;gt;&lt;/i&gt;&lt;br&gt;&lt;b&gt;Terminal&lt;/b&gt;&lt;/p&gt;&lt;hr size=&quot;1&quot;&gt;&lt;p style=&quot;margin:0px;margin-left:4px;&quot;&gt;&lt;br&gt;&lt;/p&gt;&lt;hr size=&quot;1&quot;&gt;&lt;p style=&quot;margin:0px;margin-left:4px;&quot;&gt;+ efetuarLogin(Type):.&lt;br&gt;+ consultarSaldo(Type):.&lt;/p&gt;&lt;p style=&quot;margin:0px;margin-left:4px;&quot;&gt;+ efetuarSaque():.&lt;/p&gt;&lt;p style=&quot;margin:0px;margin-left:4px;&quot;&gt;+ solicitarDeposito():.&lt;/p&gt;" style="verticalAlign=top;align=left;overflow=fill;fontSize=12;fontFamily=Helvetica;html=1;" parent="WIyWlLk6GJQsqaUBKTNV-1" vertex="1">
          <mxGeometry x="80" y="110" width="140" height="148" as="geometry" />
        </mxCell>
        <mxCell id="RDTARKWvVBVLJ8gn_Zw1-21" value="" style="edgeStyle=orthogonalEdgeStyle;rounded=0;orthogonalLoop=1;jettySize=auto;html=1;endArrow=none;endFill=0;" parent="WIyWlLk6GJQsqaUBKTNV-1" source="RDTARKWvVBVLJ8gn_Zw1-18" target="RDTARKWvVBVLJ8gn_Zw1-20" edge="1">
          <mxGeometry relative="1" as="geometry">
            <Array as="points">
              <mxPoint x="345" y="267" />
              <mxPoint x="345" y="267" />
            </Array>
          </mxGeometry>
        </mxCell>
        <mxCell id="RDTARKWvVBVLJ8gn_Zw1-23" value="" style="edgeStyle=orthogonalEdgeStyle;rounded=0;orthogonalLoop=1;jettySize=auto;html=1;endArrow=none;endFill=0;" parent="WIyWlLk6GJQsqaUBKTNV-1" target="RDTARKWvVBVLJ8gn_Zw1-22" edge="1">
          <mxGeometry relative="1" as="geometry">
            <mxPoint x="175" y="445" as="sourcePoint" />
            <Array as="points">
              <mxPoint x="200" y="445" />
            </Array>
          </mxGeometry>
        </mxCell>
        <mxCell id="RDTARKWvVBVLJ8gn_Zw1-26" value="" style="edgeStyle=orthogonalEdgeStyle;rounded=0;orthogonalLoop=1;jettySize=auto;html=1;endArrow=none;endFill=0;" parent="WIyWlLk6GJQsqaUBKTNV-1" source="RDTARKWvVBVLJ8gn_Zw1-18" target="RDTARKWvVBVLJ8gn_Zw1-25" edge="1">
          <mxGeometry relative="1" as="geometry">
            <Array as="points">
              <mxPoint x="350" y="479" />
              <mxPoint x="350" y="479" />
            </Array>
          </mxGeometry>
        </mxCell>
        <mxCell id="RDTARKWvVBVLJ8gn_Zw1-33" value="" style="edgeStyle=orthogonalEdgeStyle;rounded=0;orthogonalLoop=1;jettySize=auto;html=1;endArrow=none;endFill=0;" parent="WIyWlLk6GJQsqaUBKTNV-1" source="RDTARKWvVBVLJ8gn_Zw1-18" target="RDTARKWvVBVLJ8gn_Zw1-32" edge="1">
          <mxGeometry relative="1" as="geometry">
            <Array as="points">
              <mxPoint x="520" y="299" />
              <mxPoint x="520" y="299" />
            </Array>
          </mxGeometry>
        </mxCell>
        <mxCell id="RDTARKWvVBVLJ8gn_Zw1-18" value="&lt;p style=&quot;margin:0px;margin-top:4px;text-align:center;&quot;&gt;&lt;i&gt;&amp;lt;&amp;lt;&lt;/i&gt;control&lt;i&gt;&amp;gt;&amp;gt;&lt;/i&gt;&lt;br&gt;&lt;b&gt;ControladorCaixa&lt;/b&gt;&lt;/p&gt;&lt;hr size=&quot;1&quot;&gt;&lt;p style=&quot;margin:0px;margin-left:4px;&quot;&gt;&lt;br&gt;&lt;/p&gt;&lt;hr size=&quot;1&quot;&gt;&lt;p style=&quot;margin:0px;margin-left:4px;&quot;&gt;+ efetuarLogin(numConta:.,senha:.):.&lt;br&gt;+ consultarSaldo():.&lt;/p&gt;&lt;p style=&quot;margin:0px;margin-left:4px;&quot;&gt;+ efetuarSaque(quant:.):.&lt;/p&gt;&lt;p style=&quot;margin:0px;margin-left:4px;&quot;&gt;+ solicitarDeposito(quant:.):.&lt;/p&gt;" style="verticalAlign=top;align=left;overflow=fill;fontSize=12;fontFamily=Helvetica;html=1;" parent="WIyWlLk6GJQsqaUBKTNV-1" vertex="1">
          <mxGeometry x="150" y="297" width="210" height="148" as="geometry" />
        </mxCell>
        <mxCell id="RDTARKWvVBVLJ8gn_Zw1-20" value="&lt;p style=&quot;margin:0px;margin-top:4px;text-align:center;&quot;&gt;&lt;i&gt;&amp;lt;&amp;lt;&lt;/i&gt;boundary&lt;i&gt;&amp;gt;&amp;gt;&lt;/i&gt;&lt;br&gt;&lt;b&gt;FronteiraCadastroContas&lt;/b&gt;&lt;/p&gt;&lt;hr size=&quot;1&quot;&gt;&lt;p style=&quot;margin:0px;margin-left:4px;&quot;&gt;&lt;br&gt;&lt;/p&gt;&lt;hr size=&quot;1&quot;&gt;&lt;p style=&quot;margin:0px;margin-left:4px;&quot;&gt;+ obterConta(numConta:.):.&lt;br&gt;+ atualizarConta(numConta:.):.&lt;/p&gt;&lt;p style=&quot;margin:0px;margin-left:4px;&quot;&gt;+ efetuarSaque(quant:.):.&lt;/p&gt;&lt;p style=&quot;margin:0px;margin-left:4px;&quot;&gt;+ solicitarDeposito(quant:.):.&lt;/p&gt;" style="verticalAlign=top;align=left;overflow=fill;fontSize=12;fontFamily=Helvetica;html=1;" parent="WIyWlLk6GJQsqaUBKTNV-1" vertex="1">
          <mxGeometry x="250" y="110" width="210" height="148" as="geometry" />
        </mxCell>
        <mxCell id="RDTARKWvVBVLJ8gn_Zw1-22" value="&lt;p style=&quot;margin:0px;margin-top:4px;text-align:center;&quot;&gt;&lt;i&gt;&amp;lt;&amp;lt;&lt;/i&gt;boundary&lt;i&gt;&amp;gt;&amp;gt;&lt;/i&gt;&lt;br&gt;&lt;b&gt;FronteiraDispensadorNotas&lt;/b&gt;&lt;/p&gt;&lt;hr size=&quot;1&quot;&gt;&lt;p style=&quot;margin:0px;margin-left:4px;&quot;&gt;&lt;br&gt;&lt;/p&gt;&lt;hr size=&quot;1&quot;&gt;&lt;p style=&quot;margin:0px;margin-left:4px;&quot;&gt;+ liberarQuantia(quant:.):.&lt;br&gt;&lt;/p&gt;" style="verticalAlign=top;align=left;overflow=fill;fontSize=12;fontFamily=Helvetica;html=1;" parent="WIyWlLk6GJQsqaUBKTNV-1" vertex="1">
          <mxGeometry x="30" y="489" width="210" height="114" as="geometry" />
        </mxCell>
        <mxCell id="RDTARKWvVBVLJ8gn_Zw1-30" value="" style="edgeStyle=orthogonalEdgeStyle;rounded=0;orthogonalLoop=1;jettySize=auto;html=1;endArrow=diamondThin;endFill=0;" parent="WIyWlLk6GJQsqaUBKTNV-1" source="RDTARKWvVBVLJ8gn_Zw1-25" target="RDTARKWvVBVLJ8gn_Zw1-29" edge="1">
          <mxGeometry relative="1" as="geometry">
            <Array as="points">
              <mxPoint x="415" y="479" />
              <mxPoint x="415" y="479" />
            </Array>
          </mxGeometry>
        </mxCell>
        <mxCell id="RDTARKWvVBVLJ8gn_Zw1-25" value="&lt;p style=&quot;margin:0px;margin-top:4px;text-align:center;&quot;&gt;&lt;i&gt;&amp;lt;&amp;lt;&lt;/i&gt;entity&lt;i&gt;&amp;gt;&amp;gt;&lt;/i&gt;&lt;br&gt;&lt;b&gt;CaixaEletronico&lt;/b&gt;&lt;/p&gt;&lt;hr size=&quot;1&quot;&gt;&lt;p style=&quot;margin:0px;margin-left:4px;&quot;&gt;- quantiaDisponivel:.&lt;/p&gt;&lt;p style=&quot;margin:0px;margin-left:4px;&quot;&gt;- statusLogin:.&lt;/p&gt;&lt;p style=&quot;margin:0px;margin-left:4px;&quot;&gt;- numContaLogin:.&lt;/p&gt;&lt;hr size=&quot;1&quot;&gt;&lt;p style=&quot;margin:0px;margin-left:4px;&quot;&gt;+ atualizarStatusLoginCaixa(numConta:.):.&lt;br&gt;+ obterNumConta():.&lt;/p&gt;&lt;p style=&quot;margin:0px;margin-left:4px;&quot;&gt;+ obterQuantDisponivel():.&lt;/p&gt;&lt;p style=&quot;margin:0px;margin-left:4px;&quot;&gt;+ debitarValor(quant:.):.&lt;/p&gt;" style="verticalAlign=top;align=left;overflow=fill;fontSize=12;fontFamily=Helvetica;html=1;" parent="WIyWlLk6GJQsqaUBKTNV-1" vertex="1">
          <mxGeometry x="250" y="489" width="240" height="160" as="geometry" />
        </mxCell>
        <mxCell id="RDTARKWvVBVLJ8gn_Zw1-29" value="&lt;p style=&quot;margin:0px;margin-top:4px;text-align:center;&quot;&gt;&lt;i&gt;&amp;lt;&amp;lt;&lt;/i&gt;entity&lt;i&gt;&amp;gt;&amp;gt;&lt;/i&gt;&lt;br&gt;&lt;b&gt;Banco&lt;/b&gt;&lt;/p&gt;&lt;hr size=&quot;1&quot;&gt;&lt;p style=&quot;margin:0px;margin-left:4px;&quot;&gt;- cod:.&lt;/p&gt;&lt;p style=&quot;margin:0px;margin-left:4px;&quot;&gt;- nome:.&lt;br&gt;&lt;/p&gt;&lt;hr size=&quot;1&quot;&gt;&lt;p style=&quot;margin:0px;margin-left:4px;&quot;&gt;&lt;br&gt;&lt;/p&gt;" style="verticalAlign=top;align=left;overflow=fill;fontSize=12;fontFamily=Helvetica;html=1;" parent="WIyWlLk6GJQsqaUBKTNV-1" vertex="1">
          <mxGeometry x="390" y="329" width="90" height="116" as="geometry" />
        </mxCell>
        <mxCell id="RDTARKWvVBVLJ8gn_Zw1-35" style="edgeStyle=orthogonalEdgeStyle;rounded=0;orthogonalLoop=1;jettySize=auto;html=1;endArrow=diamondThin;endFill=0;entryX=1;entryY=0.026;entryDx=0;entryDy=0;entryPerimeter=0;startArrow=none;startFill=0;jumpSize=6;" parent="WIyWlLk6GJQsqaUBKTNV-1" source="RDTARKWvVBVLJ8gn_Zw1-32" target="RDTARKWvVBVLJ8gn_Zw1-29" edge="1">
          <mxGeometry relative="1" as="geometry">
            <mxPoint x="480" y="339" as="targetPoint" />
            <Array as="points">
              <mxPoint x="550" y="332" />
              <mxPoint x="550" y="332" />
            </Array>
          </mxGeometry>
        </mxCell>
        <mxCell id="RDTARKWvVBVLJ8gn_Zw1-40" value="" style="edgeStyle=orthogonalEdgeStyle;rounded=0;jumpSize=6;orthogonalLoop=1;jettySize=auto;html=1;startArrow=none;startFill=0;endArrow=diamondThin;endFill=0;startSize=0;sourcePerimeterSpacing=0;strokeWidth=1;" parent="WIyWlLk6GJQsqaUBKTNV-1" source="RDTARKWvVBVLJ8gn_Zw1-32" target="RDTARKWvVBVLJ8gn_Zw1-37" edge="1">
          <mxGeometry relative="1" as="geometry">
            <Array as="points">
              <mxPoint x="555" y="360" />
              <mxPoint x="555" y="360" />
            </Array>
          </mxGeometry>
        </mxCell>
        <mxCell id="SKyVwLDhpcUvZB3JMw53-2" value="" style="edgeStyle=orthogonalEdgeStyle;rounded=0;orthogonalLoop=1;jettySize=auto;html=1;startArrow=block;startFill=0;endArrow=none;endFill=0;exitX=0;exitY=0.75;exitDx=0;exitDy=0;" edge="1" parent="WIyWlLk6GJQsqaUBKTNV-1" target="SKyVwLDhpcUvZB3JMw53-1">
          <mxGeometry relative="1" as="geometry">
            <mxPoint x="850" y="324" as="sourcePoint" />
            <Array as="points">
              <mxPoint x="715" y="324" />
            </Array>
          </mxGeometry>
        </mxCell>
        <mxCell id="SKyVwLDhpcUvZB3JMw53-4" value="" style="edgeStyle=orthogonalEdgeStyle;rounded=0;orthogonalLoop=1;jettySize=auto;html=1;startArrow=block;startFill=0;endArrow=none;endFill=0;exitX=0.25;exitY=1;exitDx=0;exitDy=0;" edge="1" parent="WIyWlLk6GJQsqaUBKTNV-1" target="SKyVwLDhpcUvZB3JMw53-3">
          <mxGeometry relative="1" as="geometry">
            <mxPoint x="885" y="349" as="sourcePoint" />
          </mxGeometry>
        </mxCell>
        <mxCell id="RDTARKWvVBVLJ8gn_Zw1-32" value="&lt;p style=&quot;margin:0px;margin-top:4px;text-align:center;&quot;&gt;&lt;i&gt;&amp;lt;&amp;lt;&lt;/i&gt;interface&lt;i&gt;&amp;gt;&amp;gt;&lt;/i&gt;&lt;br&gt;&lt;b&gt;Conta&lt;/b&gt;&lt;/p&gt;&lt;hr size=&quot;1&quot;&gt;&lt;p style=&quot;margin:0px;margin-left:4px;&quot;&gt;- senha:.&lt;/p&gt;&lt;p style=&quot;margin:0px;margin-left:4px;&quot;&gt;- numero:.&lt;/p&gt;&lt;p style=&quot;margin:0px;margin-left:4px;&quot;&gt;- saldo:.&lt;/p&gt;&lt;p style=&quot;margin:0px;margin-left:4px;&quot;&gt;- status:.&lt;/p&gt;&lt;hr size=&quot;1&quot;&gt;&lt;p style=&quot;margin:0px;margin-left:4px;&quot;&gt;+ verificarSenha(senha:.):.&lt;br&gt;+ obterStatus():.&lt;/p&gt;&lt;p style=&quot;margin:0px;margin-left:4px;&quot;&gt;+ obterSaldo():.&lt;/p&gt;&lt;p style=&quot;margin:0px;margin-left:4px;&quot;&gt;+ debitar(quant:.):.&lt;/p&gt;&lt;p style=&quot;margin:0px;margin-left:4px;&quot;&gt;+ desativar():.&lt;/p&gt;&lt;p style=&quot;margin:0px;margin-left:4px;&quot;&gt;+ depositar():.&lt;/p&gt;&lt;p style=&quot;margin:0px;margin-left:4px;&quot;&gt;+ ativar():.&lt;/p&gt;" style="verticalAlign=top;align=left;overflow=fill;fontSize=12;fontFamily=Helvetica;html=1;" parent="WIyWlLk6GJQsqaUBKTNV-1" vertex="1">
          <mxGeometry x="500" y="110" width="150" height="230" as="geometry" />
        </mxCell>
        <mxCell id="RDTARKWvVBVLJ8gn_Zw1-39" value="" style="edgeStyle=orthogonalEdgeStyle;rounded=0;jumpSize=6;orthogonalLoop=1;jettySize=auto;html=1;startArrow=none;startFill=0;endArrow=diamondThin;endFill=0;startSize=0;sourcePerimeterSpacing=0;strokeWidth=1;" parent="WIyWlLk6GJQsqaUBKTNV-1" source="RDTARKWvVBVLJ8gn_Zw1-37" target="RDTARKWvVBVLJ8gn_Zw1-29" edge="1">
          <mxGeometry relative="1" as="geometry">
            <Array as="points">
              <mxPoint x="500" y="409" />
              <mxPoint x="500" y="409" />
            </Array>
          </mxGeometry>
        </mxCell>
        <mxCell id="RDTARKWvVBVLJ8gn_Zw1-37" value="&lt;p style=&quot;margin:0px;margin-top:4px;text-align:center;&quot;&gt;&lt;i&gt;&amp;lt;&amp;lt;&lt;/i&gt;entity&lt;i&gt;&amp;gt;&amp;gt;&lt;/i&gt;&lt;br&gt;&lt;b&gt;FichaCliente&lt;/b&gt;&lt;/p&gt;&lt;hr size=&quot;1&quot;&gt;&lt;p style=&quot;margin:0px;margin-left:4px;&quot;&gt;- nome:.&lt;/p&gt;&lt;p style=&quot;margin:0px;margin-left:4px;&quot;&gt;- RG:.&lt;br&gt;&lt;/p&gt;&lt;p style=&quot;margin:0px;margin-left:4px;&quot;&gt;- CPF:.&lt;/p&gt;&lt;hr size=&quot;1&quot;&gt;&lt;p style=&quot;margin:0px;margin-left:4px;&quot;&gt;&lt;br&gt;&lt;/p&gt;" style="verticalAlign=top;align=left;overflow=fill;fontSize=12;fontFamily=Helvetica;html=1;" parent="WIyWlLk6GJQsqaUBKTNV-1" vertex="1">
          <mxGeometry x="510" y="386" width="90" height="116" as="geometry" />
        </mxCell>
        <mxCell id="RDTARKWvVBVLJ8gn_Zw1-41" value="Exercício 5 - Padrão Factory" style="text;align=center;fontStyle=1;verticalAlign=middle;spacingLeft=3;spacingRight=3;strokeColor=none;rotatable=0;points=[[0,0.5],[1,0.5]];portConstraint=eastwest;fontSize=40;labelBorderColor=none;fillColor=none;strokeWidth=0;" parent="WIyWlLk6GJQsqaUBKTNV-1" vertex="1">
          <mxGeometry x="320" y="20" width="520" height="60" as="geometry" />
        </mxCell>
        <mxCell id="SKyVwLDhpcUvZB3JMw53-8" style="edgeStyle=orthogonalEdgeStyle;rounded=0;orthogonalLoop=1;jettySize=auto;html=1;startArrow=block;startFill=0;endArrow=none;endFill=0;entryX=0.5;entryY=0;entryDx=0;entryDy=0;exitX=1;exitY=0.5;exitDx=0;exitDy=0;" edge="1" parent="WIyWlLk6GJQsqaUBKTNV-1" source="SKyVwLDhpcUvZB3JMw53-15" target="SKyVwLDhpcUvZB3JMw53-5">
          <mxGeometry relative="1" as="geometry">
            <mxPoint x="1050" y="399" as="targetPoint" />
            <mxPoint x="990" y="324" as="sourcePoint" />
          </mxGeometry>
        </mxCell>
        <mxCell id="SKyVwLDhpcUvZB3JMw53-12" style="edgeStyle=orthogonalEdgeStyle;rounded=0;orthogonalLoop=1;jettySize=auto;html=1;startArrow=block;startFill=0;endArrow=none;endFill=0;" edge="1" parent="WIyWlLk6GJQsqaUBKTNV-1" source="SKyVwLDhpcUvZB3JMw53-0">
          <mxGeometry relative="1" as="geometry">
            <mxPoint x="800.0000000000002" y="140" as="targetPoint" />
            <Array as="points">
              <mxPoint x="800" y="90" />
            </Array>
          </mxGeometry>
        </mxCell>
        <mxCell id="SKyVwLDhpcUvZB3JMw53-13" style="edgeStyle=orthogonalEdgeStyle;rounded=0;orthogonalLoop=1;jettySize=auto;html=1;entryX=0.643;entryY=-0.012;entryDx=0;entryDy=0;entryPerimeter=0;startArrow=block;startFill=0;endArrow=none;endFill=0;" edge="1" parent="WIyWlLk6GJQsqaUBKTNV-1" source="SKyVwLDhpcUvZB3JMw53-0" target="SKyVwLDhpcUvZB3JMw53-10">
          <mxGeometry relative="1" as="geometry" />
        </mxCell>
        <mxCell id="SKyVwLDhpcUvZB3JMw53-14" style="edgeStyle=orthogonalEdgeStyle;rounded=0;orthogonalLoop=1;jettySize=auto;html=1;entryX=0.667;entryY=-0.01;entryDx=0;entryDy=0;entryPerimeter=0;startArrow=block;startFill=0;endArrow=none;endFill=0;" edge="1" parent="WIyWlLk6GJQsqaUBKTNV-1" source="SKyVwLDhpcUvZB3JMw53-0" target="SKyVwLDhpcUvZB3JMw53-11">
          <mxGeometry relative="1" as="geometry">
            <Array as="points">
              <mxPoint x="1110" y="80" />
            </Array>
          </mxGeometry>
        </mxCell>
        <mxCell id="SKyVwLDhpcUvZB3JMw53-0" value="&lt;p style=&quot;margin:0px;margin-top:4px;text-align:center;&quot;&gt;&lt;i&gt;&amp;lt;&amp;lt;Interface&amp;gt;&amp;gt;&lt;/i&gt;&lt;br&gt;&lt;b&gt;Interface&lt;/b&gt;&lt;/p&gt;&lt;hr size=&quot;1&quot;&gt;&lt;p style=&quot;margin:0px;margin-left:4px;&quot;&gt;&lt;br&gt;&lt;/p&gt;&lt;hr size=&quot;1&quot;&gt;&lt;p style=&quot;margin:0px;margin-left:4px;&quot;&gt;+ MakeProduct(): Conta&lt;/p&gt;" style="verticalAlign=top;align=left;overflow=fill;fontSize=12;fontFamily=Helvetica;html=1;" vertex="1" parent="WIyWlLk6GJQsqaUBKTNV-1">
          <mxGeometry x="890" y="20" width="140" height="100" as="geometry" />
        </mxCell>
        <mxCell id="SKyVwLDhpcUvZB3JMw53-1" value="&lt;p style=&quot;margin:0px;margin-top:4px;text-align:center;&quot;&gt;&lt;i&gt;&amp;lt;&amp;lt;&lt;/i&gt;interface&lt;i&gt;&amp;gt;&amp;gt;&lt;/i&gt;&lt;br&gt;&lt;b&gt;ContaDigital&lt;/b&gt;&lt;/p&gt;&lt;hr size=&quot;1&quot;&gt;&lt;p style=&quot;margin:0px;margin-left:4px;&quot;&gt;- senha:.&lt;/p&gt;&lt;p style=&quot;margin:0px;margin-left:4px;&quot;&gt;- numero:.&lt;/p&gt;&lt;p style=&quot;margin:0px;margin-left:4px;&quot;&gt;- saldo:.&lt;/p&gt;&lt;p style=&quot;margin:0px;margin-left:4px;&quot;&gt;- status:.&lt;/p&gt;&lt;hr size=&quot;1&quot;&gt;&lt;p style=&quot;margin:0px;margin-left:4px;&quot;&gt;+ verificarSenha(senha:.):.&lt;br&gt;+ obterStatus():.&lt;/p&gt;&lt;p style=&quot;margin:0px;margin-left:4px;&quot;&gt;+ obterSaldo():.&lt;/p&gt;&lt;p style=&quot;margin:0px;margin-left:4px;&quot;&gt;+ debitar(quant:.):.&lt;/p&gt;&lt;p style=&quot;margin:0px;margin-left:4px;&quot;&gt;+ desativar():.&lt;/p&gt;&lt;p style=&quot;margin:0px;margin-left:4px;&quot;&gt;+ depositar():.&lt;/p&gt;&lt;p style=&quot;margin:0px;margin-left:4px;&quot;&gt;+ ativar():.&lt;/p&gt;" style="verticalAlign=top;align=left;overflow=fill;fontSize=12;fontFamily=Helvetica;html=1;" vertex="1" parent="WIyWlLk6GJQsqaUBKTNV-1">
          <mxGeometry x="640" y="419" width="150" height="230" as="geometry" />
        </mxCell>
        <mxCell id="SKyVwLDhpcUvZB3JMw53-3" value="&lt;p style=&quot;margin:0px;margin-top:4px;text-align:center;&quot;&gt;&lt;i&gt;&amp;lt;&amp;lt;&lt;/i&gt;interface&lt;i&gt;&amp;gt;&amp;gt;&lt;/i&gt;&lt;br&gt;&lt;b&gt;ContaPoupanca&lt;/b&gt;&lt;/p&gt;&lt;hr size=&quot;1&quot;&gt;&lt;p style=&quot;margin:0px;margin-left:4px;&quot;&gt;- senha:.&lt;/p&gt;&lt;p style=&quot;margin:0px;margin-left:4px;&quot;&gt;- numero:.&lt;/p&gt;&lt;p style=&quot;margin:0px;margin-left:4px;&quot;&gt;- saldo:.&lt;/p&gt;&lt;p style=&quot;margin:0px;margin-left:4px;&quot;&gt;- status:.&lt;/p&gt;&lt;hr size=&quot;1&quot;&gt;&lt;p style=&quot;margin:0px;margin-left:4px;&quot;&gt;+ verificarSenha(senha:.):.&lt;br&gt;+ obterStatus():.&lt;/p&gt;&lt;p style=&quot;margin:0px;margin-left:4px;&quot;&gt;+ obterSaldo():.&lt;/p&gt;&lt;p style=&quot;margin:0px;margin-left:4px;&quot;&gt;+ debitar(quant:.):.&lt;/p&gt;&lt;p style=&quot;margin:0px;margin-left:4px;&quot;&gt;+ desativar():.&lt;/p&gt;&lt;p style=&quot;margin:0px;margin-left:4px;&quot;&gt;+ depositar():.&lt;/p&gt;&lt;p style=&quot;margin:0px;margin-left:4px;&quot;&gt;+ ativar():.&lt;/p&gt;" style="verticalAlign=top;align=left;overflow=fill;fontSize=12;fontFamily=Helvetica;html=1;" vertex="1" parent="WIyWlLk6GJQsqaUBKTNV-1">
          <mxGeometry x="810" y="419" width="150" height="230" as="geometry" />
        </mxCell>
        <mxCell id="SKyVwLDhpcUvZB3JMw53-5" value="&lt;p style=&quot;margin:0px;margin-top:4px;text-align:center;&quot;&gt;&lt;i&gt;&amp;lt;&amp;lt;&lt;/i&gt;interface&lt;i&gt;&amp;gt;&amp;gt;&lt;/i&gt;&lt;br&gt;&lt;b&gt;ContaCorrente&lt;/b&gt;&lt;/p&gt;&lt;hr size=&quot;1&quot;&gt;&lt;p style=&quot;margin:0px;margin-left:4px;&quot;&gt;- senha:.&lt;/p&gt;&lt;p style=&quot;margin:0px;margin-left:4px;&quot;&gt;- numero:.&lt;/p&gt;&lt;p style=&quot;margin:0px;margin-left:4px;&quot;&gt;- saldo:.&lt;/p&gt;&lt;p style=&quot;margin:0px;margin-left:4px;&quot;&gt;- status:.&lt;/p&gt;&lt;hr size=&quot;1&quot;&gt;&lt;p style=&quot;margin:0px;margin-left:4px;&quot;&gt;+ verificarSenha(senha:.):.&lt;br&gt;+ obterStatus():.&lt;/p&gt;&lt;p style=&quot;margin:0px;margin-left:4px;&quot;&gt;+ obterSaldo():.&lt;/p&gt;&lt;p style=&quot;margin:0px;margin-left:4px;&quot;&gt;+ debitar(quant:.):.&lt;/p&gt;&lt;p style=&quot;margin:0px;margin-left:4px;&quot;&gt;+ desativar():.&lt;/p&gt;&lt;p style=&quot;margin:0px;margin-left:4px;&quot;&gt;+ depositar():.&lt;/p&gt;&lt;p style=&quot;margin:0px;margin-left:4px;&quot;&gt;+ ativar():.&lt;/p&gt;" style="verticalAlign=top;align=left;overflow=fill;fontSize=12;fontFamily=Helvetica;html=1;" vertex="1" parent="WIyWlLk6GJQsqaUBKTNV-1">
          <mxGeometry x="970" y="419" width="150" height="230" as="geometry" />
        </mxCell>
        <mxCell id="SKyVwLDhpcUvZB3JMw53-9" value="&lt;p style=&quot;margin:0px;margin-top:4px;text-align:center;&quot;&gt;&lt;i&gt;&amp;lt;&amp;lt;Interface&amp;gt;&amp;gt;&lt;/i&gt;&lt;br&gt;&lt;b&gt;Interface&lt;/b&gt;&lt;/p&gt;&lt;hr size=&quot;1&quot;&gt;&lt;p style=&quot;margin:0px;margin-left:4px;&quot;&gt;&lt;br&gt;&lt;/p&gt;&lt;hr size=&quot;1&quot;&gt;&lt;p style=&quot;margin:0px;margin-left:4px;&quot;&gt;+ MakeContaDigitalt():&lt;/p&gt;&lt;p style=&quot;margin:0px;margin-left:4px;&quot;&gt;Conta&lt;/p&gt;" style="verticalAlign=top;align=left;overflow=fill;fontSize=12;fontFamily=Helvetica;html=1;" vertex="1" parent="WIyWlLk6GJQsqaUBKTNV-1">
          <mxGeometry x="720" y="147" width="130" height="111" as="geometry" />
        </mxCell>
        <mxCell id="SKyVwLDhpcUvZB3JMw53-10" value="&lt;p style=&quot;margin:0px;margin-top:4px;text-align:center;&quot;&gt;&lt;i&gt;&amp;lt;&amp;lt;Interface&amp;gt;&amp;gt;&lt;/i&gt;&lt;br&gt;&lt;b&gt;Interface&lt;/b&gt;&lt;/p&gt;&lt;hr size=&quot;1&quot;&gt;&lt;p style=&quot;margin:0px;margin-left:4px;&quot;&gt;&lt;br&gt;&lt;/p&gt;&lt;hr size=&quot;1&quot;&gt;&lt;p style=&quot;margin:0px;margin-left:4px;&quot;&gt;+ MakeContaPoupanca():&lt;/p&gt;&lt;p style=&quot;margin:0px;margin-left:4px;&quot;&gt;Conta&lt;/p&gt;" style="verticalAlign=top;align=left;overflow=fill;fontSize=12;fontFamily=Helvetica;html=1;" vertex="1" parent="WIyWlLk6GJQsqaUBKTNV-1">
          <mxGeometry x="870" y="147" width="140" height="111" as="geometry" />
        </mxCell>
        <mxCell id="SKyVwLDhpcUvZB3JMw53-11" value="&lt;p style=&quot;margin:0px;margin-top:4px;text-align:center;&quot;&gt;&lt;i&gt;&amp;lt;&amp;lt;Interface&amp;gt;&amp;gt;&lt;/i&gt;&lt;br&gt;&lt;b&gt;Interface&lt;/b&gt;&lt;/p&gt;&lt;hr size=&quot;1&quot;&gt;&lt;p style=&quot;margin:0px;margin-left:4px;&quot;&gt;&lt;br&gt;&lt;/p&gt;&lt;hr size=&quot;1&quot;&gt;&lt;p style=&quot;margin:0px;margin-left:4px;&quot;&gt;+ MakeContaDigitalt():&lt;/p&gt;&lt;p style=&quot;margin:0px;margin-left:4px;&quot;&gt;Conta&lt;/p&gt;" style="verticalAlign=top;align=left;overflow=fill;fontSize=12;fontFamily=Helvetica;html=1;" vertex="1" parent="WIyWlLk6GJQsqaUBKTNV-1">
          <mxGeometry x="1030" y="147" width="120" height="111" as="geometry" />
        </mxCell>
        <mxCell id="SKyVwLDhpcUvZB3JMw53-15" value="«interface»&lt;br&gt;&lt;b&gt;Conta&lt;/b&gt;" style="html=1;" vertex="1" parent="WIyWlLk6GJQsqaUBKTNV-1">
          <mxGeometry x="850" y="297" width="110" height="50" as="geometry" />
        </mxCell>
      </root>
    </mxGraphModel>
  </diagram>
</mxfile>
